# xmcd
#
# Track frame offsets: 
#        225
#        21320
#        42380
#        57647
#        70193
#        92494
#        109574
#        122640
#        132190
#        150417
#        172738
#        187770
#        209758
#        220346
#        238132
#
# Disc length: 3393 seconds
#
# Revision: 1
# Processed by: cddbd v1.4PL0 Copyright (c) Steve Scherf et al.
# Submitted via: ExactAudioCopy v0.90a11
#
DISCID=d00d3e0f
DTITLE=Jessie Mae Hemphill - She-Wolf
DYEAR=1900
DGENRE=
TTITLE0=She-Wolf
TTITLE1=Standing in My Doorway Crying
TTITLE2=Jump, Baby, Jump
TTITLE3=Take Me Home with You, Baby
TTITLE4=Black Cat Bone
TTITLE5=Boogie 'Side the Road
TTITLE6=Hard Times
TTITLE7=Crawdad Hole
TTITLE8=Married Man Blues
TTITLE9=Honey Bee
TTITLE10=Overseas Blues
TTITLE11=Loving in the Moonlight
TTITLE12=Bullyin' Well
TTITLE13=Jessie's Boogie
TTITLE14=My Lord Do Just What He Say
EXTD=
EXTT0=
EXTT1=
EXTT2=
EXTT3=
EXTT4=
EXTT5=
EXTT6=
EXTT7=
EXTT8=
EXTT9=
EXTT10=
EXTT11=
EXTT12=
EXTT13=
EXTT14=
PLAYORDER=
